# xmcd
#
# Track frame offsets:
#	150
#	20959
#	43616
#	68502
#	84748
#	100611
#	121177
#	142881
#	160397
#	182160
#
# Disc length: 2683 seconds
#
# Revision: 1
# Processed by: cddbd v1.4PL0 Copyright (c) Steve Scherf et al.
# Submitted via: audiograbber 1.82.02
#
DISCID=7f0a790a
DTITLE=Hakký Bulut - Kusurlarýma Ver
DYEAR=2003
DGENRE=Pop
TTITLE0=Son Veda
TTITLE1=Bir Tek Gün
TTITLE2=Yüreðimin Sevinci
TTITLE3=Hayret
TTITLE4=Gençliðimi Çaldý
TTITLE5=Kusurlarýma Ver
TTITLE6=Nankörler
TTITLE7=Ayýrmasýn Tanrým
TTITLE8=Yuvamý Yýktýn
TTITLE9=Vazgecilmezimsin
EXTD=metin@metin.nom.tr
EXTT0=
EXTT1=
EXTT2=
EXTT3=
EXTT4=
EXTT5=
EXTT6=
EXTT7=
EXTT8=
EXTT9=
PLAYORDER=
